HIERARCHY
ROOT Hips
{
	OFFSET 0.00000 0.00000 0.00000
	CHANNELS 6 Xposition Yposition Zposition Yrotation Zrotation Xrotation 
	JOINT Lumbar
	{
		OFFSET 0 0 0
		CHANNELS 3 Zrotation Xrotation Yrotation
		JOINT Neck
		{
			OFFSET 0.00 0.2701 0.00
			CHANNELS 3 Zrotation Xrotation Yrotation
			End Site
			{
				OFFSET 0.00 0.1379 0.00
			}
		}
		JOINT RightShoulder
		{
			OFFSET 0.0119 0.2289 0.1181
			CHANNELS 3 Zrotation Xrotation Yrotation
			JOINT RightElbow
			{
				OFFSET 0.00 -0.1475 0.00
				CHANNELS 2 Zrotation Yrotation
				JOINT RightWrist
				{
					OFFSET 0.00 -0.1605 0.00
					CHANNELS 2 Zrotation Xrotation
					End Site
					{
						OFFSET 0.0040 -0.1068 0.0006
					}
				}
			}
		}
		JOINT LeftShoulder
		{
			OFFSET 0.0119 0.2289 -0.1181
			CHANNELS 3 Zrotation Xrotation Yrotation
			JOINT LeftElbow
			{
				OFFSET 0.00 -0.1475 0.00
				CHANNELS 2 Zrotation Yrotation
				JOINT LeftWrist
				{
					OFFSET 0.00 -0.1605 0.00
					CHANNELS 2 Zrotation Xrotation
					End Site
					{
						OFFSET 0.0040 -0.1068 -0.0006
					}
				}
			}
		}
	}
	JOINT RightHip
	{
		OFFSET 0.0316 -0.0424 0.0458
		CHANNELS 3 Zrotation Xrotation Yrotation
		JOINT RightKnee
		{
			OFFSET 0.00 -0.2438 0.00
			CHANNELS 1 Zrotation
			JOINT RightAnkle
			{
				OFFSET 0.00 -0.2449 0.00
				CHANNELS 3 Zrotation Xrotation Yrotation
				End Site
				{
					OFFSET 0.1237 -0.0542 0.0051
				}
			}
		}
	}
	JOINT LeftHip
	{
		OFFSET 0.0316 -0.0424 -0.0458
		CHANNELS 3 Zrotation Xrotation Yrotation
		JOINT LeftKnee
		{
			OFFSET 0.00 -0.2438 0.00
			CHANNELS 1 Zrotation
			JOINT LeftAnkle
			{
				OFFSET 0.00 -0.2449 0.00
				CHANNELS 3 Zrotation Xrotation Yrotation
				End Site
				{
					OFFSET 0.1237 -0.0542 -0.0051
				}
			}
		}
	}
}
MOTION
Frames: 11
Frame Time: 0.02
-0.58963 0.57422 0.04653 223.13724 0 -3.02778 -0.05409 2.52225 -5.1453 -9.3752 9.7519 0.62798 1.3435 -24.35454 -27.68514 132.88971 78.86865 -53.19758 -2.59227 -4.85504 2.3041 29.52678 123.40908 -62.28027 -48.10958 1.14432 8.49883 10.22255 3.65591 -24.81291 9.57584 -7.63549 -12.36163 23.22457 6.31064 -6.09723 -47.18258 7.56462 5.27396 7.67972
-0.58679 0.57428 0.04381 223.30059 0 -2.89235 -1.42901 2.57676 -5.32561 -8.55578 10.15819 0.51913 1.034 -24.46538 -28.97844 133.74528 81.37703 -57.58036 -3.14796 -6.86249 0.42168 31.02184 125.61806 -64.13638 -49.15862 1.39421 8.93091 10.09313 3.63746 -24.90628 9.37057 -7.55584 -12.46401 23.50219 6.21931 -6.01164 -47.03611 7.71912 5.35678 7.75693
-0.58361 0.57438 0.04128 223.44246 0 -2.76162 -2.79461 2.61682 -5.70615 -8.00084 10.69748 0.5875 1.89778 -25.11577 -30.41672 133.34437 84.68263 -60.14551 -3.38226 -8.2534 -1.39546 32.65774 127.1883 -66.14097 -49.28956 1.58046 9.34423 9.92937 3.66535 -24.9374 9.13718 -7.46561 -12.55344 23.64155 6.11731 -5.88749 -46.72277 8.08144 5.57699 7.93988
-0.58058 0.57447 0.03871 223.58591 0 -2.62902 -4.1496 2.66491 -5.96645 -7.32206 11.15544 0.56162 2.19269 -25.50082 -31.77221 133.53694 87.53455 -63.48188 -3.76421 -9.8773 -3.1613 34.18222 129.01093 -68.05371 -49.88656 1.79359 9.76083 9.7776 3.67451 -24.99198 8.91716 -7.37821 -12.64031 23.83087 6.01647 -5.7916 -46.49167 8.34075 5.7293 8.06757
-0.57754 0.57454 0.03594 223.76145 0 -2.49157 -5.57601 2.70605 -6.34213 -6.64663 11.70285 0.58888 2.64151 -25.97096 -33.18006 133.63491 90.79999 -67.13396 -4.16279 -11.70273 -5.26928 35.90624 130.98987 -70.1136 -50.30074 2.01772 10.2024 9.63683 3.67863 -25.0685 8.69349 -7.29883 -12.76492 24.07146 5.92707 -5.64555 -46.22319 8.63412 5.90408 8.22453
-0.57445 0.57466 0.03364 223.86483 0 -2.36668 -6.84496 2.75788 -6.52959 -6.03487 12.09561 0.55138 3.04954 -26.39009 -34.51895 133.62785 93.37375 -69.65397 -4.44051 -12.95969 -6.65202 37.25039 132.48506 -71.87977 -50.84893 2.20199 10.58586 9.46635 3.70351 -25.08417 8.47154 -7.20051 -12.80706 24.17109 5.81328 -5.59474 -45.99513 8.90709 6.06508 8.34627
-0.57129 0.5749 0.03248 223.78849 0 -2.27635 -7.71801 2.85071 -6.13112 -5.49801 12.02175 0.2675 3.034 -26.56146 -35.65 133.67429 93.95656 -69.61435 -4.47371 -12.80845 -6.00864 37.48407 132.89058 -72.86505 -52.23777 2.30247 10.82024 9.2256 3.76115 -24.94463 8.25712 -7.05082 -12.62461 23.94534 5.62984 -5.84062 -45.93969 9.06854 6.15235 8.34218
-0.5681 0.57519 0.03179 223.63823 0 -2.19886 -8.42419 2.95347 -5.54085 -5.02638 11.78871 -0.08238 2.9444 -26.65968 -36.70478 133.64698 93.79421 -68.46155 -4.39077 -12.10019 -4.64347 37.33437 132.81163 -73.53118 -53.74855 2.36251 10.99525 8.95612 3.83983 -24.74663 8.04641 -6.88289 -12.35949 23.57722 5.42357 -6.18027 -45.92742 9.20363 6.22146 8.29934
-0.56494 0.57545 0.03096 223.51287 0 -2.11529 -9.1835 3.04675 -5.05008 -4.54681 11.63295 -0.38637 2.89849 -26.77372 -37.78746 133.63693 93.89288 -67.73278 -4.35151 -11.64507 -3.63539 37.37906 132.90341 -74.29516 -55.04028 2.43426 11.19262 8.69833 3.91655 -24.57617 7.83662 -6.72428 -12.13172 23.25608 5.23163 -6.46194 -45.88556 9.35353 6.30025 8.27657
-0.56168 0.57571 0.02984 223.42303 0 -2.03268 -10.04321 3.16071 -4.51243 -3.97506 11.46108 -0.75311 2.83521 -26.9752 -38.90936 133.67301 94.33821 -67.30221 -4.34181 -11.18531 -2.50651 37.34788 133.20082 -75.26673 -56.98497 2.53332 11.40868 8.44526 3.96239 -24.39768 7.61429 -6.56045 -11.90376 23.00693 5.02298 -6.80655 -45.88499 9.49752 6.37771 8.24837
-0.55864 0.576 0.02943 223.24238 0 -1.95127 -10.64828 3.23385 -4.02639 -3.61947 11.28312 -1.00488 2.79539 -26.97629 -39.92214 133.58502 93.8856 -65.99117 -4.24463 -10.58984 -1.4535 37.37645 132.9389 -75.72494 -57.61792 2.56502 11.57221 8.17572 4.07757 -24.22505 7.42002 -6.40393 -11.65761 22.57319 4.84333 -7.04345 -45.80433 9.64633 6.45195 8.21927
